<?xml version="1.0" encoding="utf-8"?>
<!-- Generator: Adobe Illustrator 27.4.0, SVG Export Plug-In . SVG Version: 6.00 Build 0)  -->
<svg version="1.1" id="Capa_1" xmlns="http://www.w3.org/2000/svg" xmlns:xlink="http://www.w3.org/1999/xlink" x="0px" y="0px"
	 viewBox="0 0 671.7 131.8" style="enable-background:new 0 0 671.7 131.8;" xml:space="preserve">
<style type="text/css">
	.st0{fill:#1D1D1B;}
	.st1{fill:#F4436C;}
	.st2{fill:#F3BA44;}
	.st3{fill:#4DA9B2;}
	.st4{fill:#A2D45E;}
</style>
<g>
	<g>
		<g>
			<path class="st0" d="M39.5,62.7c-3.7,0-6.7,3-6.7,6.7v48.9c0,3.7,3,6.7,6.7,6.7c3.7,0,6.7-3,6.7-6.7V69.4
				C46.2,65.7,43.2,62.7,39.5,62.7z"/>
			<path class="st1" d="M39.5,44.9c-1.9,0-3.4,0.6-4.7,1.9c-1.3,1.3-1.9,2.9-1.9,4.7c0,1.9,0.6,3.4,1.9,4.7c1.3,1.3,2.9,1.9,4.7,1.9
				c1.9,0,3.4-0.6,4.7-1.9c1.3-1.3,1.9-2.9,1.9-4.7c0-1.9-0.6-3.4-1.9-4.7C42.9,45.6,41.4,44.9,39.5,44.9z"/>
		</g>
		<g>
			<path class="st0" d="M162.1,64.8c-8,3.2-13.7,8.7-17.1,16.6c-3.4,7.9-3.5,15.8-0.3,23.8c3.2,8,8.7,13.7,16.6,17.1
				c7.9,3.4,15.8,3.5,23.8,0.3c8-3.2,13.7-8.7,17.1-16.6l0-0.1c0,0,2.4-6.8-3.7-8.8c-5.8-1.9-8.6,3.5-8.6,3.5c0,0,0,0,0,0l0,0
				c-1.6,3.7-4.4,6.9-8,8.7c-5.2,2.6-10.3,2.8-15.4,0.6c-3-1.3-5.4-3.2-7.2-5.7c0-0.1,0-0.2,0.1-0.2L200,88c2.2-0.9,3.4-3.4,2.5-5.6
				c0,0,0-0.1-0.1-0.1c-3.2-8-8.7-13.7-16.6-17.1C178,61.7,170.1,61.6,162.1,64.8z M184.4,79.8l-28.3,11.3c-0.1,0-0.2,0-0.2-0.1
				c0.2-1.1,0.4-2.1,0.8-3.2c1.9-5.2,6.2-9.3,11.4-11c4.1-1.3,8.2-1.1,12.3,0.6c1.4,0.6,2.7,1.4,3.8,2.2
				C184.5,79.7,184.5,79.8,184.4,79.8z"/>
			<path class="st2" d="M203,103c0,3.7-3,6.7-6.7,6.7c-3.7,0-6.7-3-6.7-6.7c0-3.7,3-6.7,6.7-6.7C200,96.3,203,99.3,203,103z"/>
		</g>
		<g>
			<path class="st0" d="M6.7,26.4L6.7,26.4c-3.7,0-6.7,3-6.7,6.7v85.2c0,3.7,3,6.7,6.7,6.7h0c3.7,0,6.7-3,6.7-6.7V33.1
				C13.4,29.4,10.4,26.4,6.7,26.4z"/>
			<path class="st2" d="M13.5,118.2c0,3.7-3,6.7-6.7,6.7c-3.7,0-6.7-3-6.7-6.7c0-3.7,3-6.7,6.7-6.7
				C10.4,111.5,13.5,114.5,13.5,118.2z"/>
		</g>
		<g>
			<path class="st0" d="M78.5,82.8h10.2c3.9,0,7-3.1,7-7c0-3.5-2.8-6.3-6.3-6.3H78.5c-0.3,0-0.5-0.2-0.5-0.5V40.5
				c0-4-3.3-7.3-7.3-7.3c-3.4,0-6.1,2.7-6.1,6.1v61.3c0,8.6,3,15.9,9.1,22c4.1,4.1,8.9,6.9,14.2,8.2c4,1,7.8-2,7.8-6.1
				c0-3.2-2.1-6.1-5.2-7.1c-2.6-0.8-4.9-2.1-6.9-4c-3.7-3.5-5.7-8.5-5.7-13.7V83.4C77.9,83.1,78.2,82.8,78.5,82.8z"/>
			<path class="st3" d="M89.5,117.7c-1.9,0-3.4,0.6-4.7,1.9c-1.3,1.3-1.9,2.9-1.9,4.7c0,1.9,0.6,3.4,1.9,4.7
				c1.3,1.3,2.9,1.9,4.7,1.9c1.8,0,3.4-0.6,4.7-1.9c1.3-1.3,1.9-2.9,1.9-4.7c0-1.9-0.6-3.4-1.9-4.7
				C92.9,118.4,91.3,117.7,89.5,117.7z"/>
		</g>
		<g>
			<path class="st0" d="M118.9,82.8h10.2c3.9,0,7-3.1,7-7c0-3.5-2.8-6.3-6.3-6.3h-10.9c-0.3,0-0.5-0.2-0.5-0.5V40.5
				c0-4-3.3-7.3-7.3-7.3c-3.4,0-6.1,2.7-6.1,6.1v61.3c0,8.6,3,15.9,9.1,22c4.1,4.1,8.9,6.9,14.2,8.2c4,1,7.8-2,7.8-6.1
				c0-3.2-2.1-6.1-5.2-7.1c-2.6-0.8-4.9-2.1-6.9-4c-3.7-3.5-5.7-8.5-5.7-13.7V83.4C118.3,83.1,118.6,82.8,118.9,82.8z"/>
			<path class="st4" d="M129.9,117.7c-1.9,0-3.4,0.6-4.7,1.9c-1.3,1.3-1.9,2.9-1.9,4.7c0,1.9,0.6,3.4,1.9,4.7
				c1.3,1.3,2.9,1.9,4.7,1.9c1.8,0,3.4-0.6,4.7-1.9c1.3-1.3,1.9-2.9,1.9-4.7c0-1.9-0.6-3.4-1.9-4.7
				C133.3,118.4,131.7,117.7,129.9,117.7z"/>
		</g>
		<g>
			<path class="st0" d="M368.5,82.8h10.2c3.9,0,7-3.1,7-7c0-3.5-2.8-6.3-6.3-6.3h-10.9c-0.3,0-0.5-0.2-0.5-0.5V40.5
				c0-4-3.3-7.3-7.3-7.3c-3.4,0-6.1,2.7-6.1,6.1v61.3c0,8.6,3,15.9,9.1,22c4.1,4.1,8.9,6.9,14.2,8.2c4,1,7.8-2,7.8-6.1
				c0-3.2-2.1-6.1-5.2-7.1c-2.6-0.8-4.9-2.1-6.9-4c-3.7-3.5-5.7-8.5-5.7-13.7V83.4C368,83.1,368.2,82.8,368.5,82.8z"/>
			<path class="st1" d="M379.5,117.7c-1.9,0-3.4,0.6-4.7,1.9c-1.3,1.3-1.9,2.9-1.9,4.7c0,1.9,0.6,3.4,1.9,4.7
				c1.3,1.3,2.9,1.9,4.7,1.9c1.8,0,3.4-0.6,4.7-1.9c1.3-1.3,1.9-2.9,1.9-4.7c0-1.9-0.6-3.4-1.9-4.7
				C382.9,118.4,381.4,117.7,379.5,117.7z"/>
		</g>
		<g>
			<path class="st0" d="M268.1,71.9L268.1,71.9c-6.1-6.1-13.5-9.2-22.1-9.2c-8.6,0-15.9,3-22,9.1c-6.1,6.1-9.1,13.4-9.1,22v24.7
				c0,3.5,2.9,6.4,6.4,6.4h0c3.8,0,6.9-3.1,6.9-6.9V93.9c0-4.5,1.6-8.8,4.6-12.1c4-4.4,9.1-6.3,15.1-5.7c4,0.4,7.8,2.3,10.6,5.1
				l0.1,0.1c0,0,5.3,4.9,9.9,0.4C273.7,76.8,268.1,71.9,268.1,71.9z"/>
			<path class="st1" d="M264.2,70.6c-1.9,0-3.4,0.6-4.7,1.9c-1.3,1.3-1.9,2.9-1.9,4.7c0,1.9,0.6,3.4,1.9,4.7
				c1.3,1.3,2.9,1.9,4.7,1.9c1.9,0,3.4-0.6,4.7-1.9c1.3-1.3,1.9-2.9,1.9-4.7c0-1.9-0.6-3.4-1.9-4.7
				C267.6,71.2,266.1,70.6,264.2,70.6z"/>
		</g>
		<g>
			<path class="st0" d="M517.2,71.9L517.2,71.9c-6.1-6.1-13.5-9.2-22.1-9.2c-8.6,0-15.9,3-22,9.1c-6.1,6.1-9.1,13.4-9.1,22v24.7
				c0,3.5,2.9,6.4,6.4,6.4h0c3.8,0,6.9-3.1,6.9-6.9V93.9c0-4.5,1.6-8.8,4.6-12.1c4-4.4,9.1-6.3,15.1-5.7c4,0.4,7.8,2.3,10.6,5.1
				l0.1,0.1c0,0,5.3,4.9,9.9,0.4C522.9,76.8,517.2,71.9,517.2,71.9z"/>
			<path class="st2" d="M513.3,70.6c-1.9,0-3.4,0.6-4.7,1.9c-1.3,1.3-1.9,2.9-1.9,4.7c0,1.9,0.6,3.4,1.9,4.7
				c1.3,1.3,2.9,1.9,4.7,1.9c1.9,0,3.4-0.6,4.7-1.9c1.3-1.3,1.9-2.9,1.9-4.7c0-1.9-0.6-3.4-1.9-4.7
				C516.8,71.2,515.2,70.6,513.3,70.6z"/>
		</g>
		<g>
			<path class="st0" d="M421.6,62.7c-8.6,0-15.9,3-22,9.1c-6.1,6.1-9.1,13.4-9.1,22c0,8.6,3,15.9,9.1,22c6.1,6.1,13.4,9.1,22,9.1
				c8.6,0,15.9-3,22-9.1c6.1-6.1,9.1-13.4,9.1-22c0-8.6-3-15.9-9.1-22C437.6,65.8,430.2,62.7,421.6,62.7z M434.2,106.4
				c-3.5,3.5-7.7,5.2-12.6,5.2c-4.9,0-9.1-1.7-12.6-5.2c-3.5-3.5-5.2-7.7-5.2-12.6c0-4.9,1.7-9.1,5.2-12.6c3.5-3.5,7.7-5.2,12.6-5.2
				c4.9,0,9.1,1.7,12.6,5.2c3.5,3.5,5.2,7.7,5.2,12.6C439.4,98.7,437.7,102.9,434.2,106.4z"/>
			<circle class="st4" cx="421.6" cy="93.6" r="6.7"/>
		</g>
		<g>
			<path class="st2" d="M315.3,93.5c0,3.7-3,6.8-6.8,6.8c-3.7,0-6.8-3-6.8-6.8c0-3.7,3-6.8,6.8-6.8
				C312.2,86.7,315.3,89.7,315.3,93.5z"/>
			<path class="st0" d="M344.2,118.6c-0.3-0.2-0.7-0.3-1.1-0.4c-1.1-0.3-2.2-0.8-3.3-1.4V93.7c0-8.7-3.1-16.1-9.2-22.2
				c-6.1-6.1-13.5-9.2-22.2-9.2c-8.7,0-16.1,3.1-22.2,9.2c-6.1,6.1-9.2,13.5-9.2,22.2c0,8.7,3.1,16.1,9.2,22.2
				c6.1,6.1,13.5,9.2,22.2,9.2c5.8,0,11-1.4,15.7-4.1c0.6,0.8,1.3,1.5,2,2.2c3.9,3.9,8.2,6.5,13.1,7.9c-0.7-0.3-1.4-0.8-2-1.4
				c-1.3-1.3-2-2.9-2-4.8c0-0.2,0-0.4,0-0.5c1.1-0.3,2.2-0.8,3-1.6c0.8-0.8,1.4-2.4,1.4-3.4v-0.9c0.7-0.2,1.4-0.4,2.2-0.4
				C342.8,118.2,343.5,118.4,344.2,118.6z M307.3,111.6c-3.9-0.2-7.7-1.8-10.6-4.4c-4.4-3.9-6.4-8.8-6.1-14.7
				c0.2-3.9,1.8-7.7,4.4-10.6c3.9-4.4,8.8-6.4,14.7-6.1c3.9,0.2,7.7,1.8,10.6,4.4c4.4,3.9,6.4,8.8,6.1,14.7
				c-0.2,3.9-1.8,7.7-4.4,10.6C318,109.9,313.1,111.9,307.3,111.6z"/>
			<path class="st3" d="M348.8,125c0,3.7-3,6.8-6.8,6.8c-3.7,0-6.8-3-6.8-6.8c0-3.7,3-6.8,6.8-6.8
				C345.8,118.2,348.8,121.3,348.8,125z"/>
		</g>
	</g>
	<g>
		<g>
			<path class="st0" d="M292.6,15.6c-1.6,0-2.9,1.3-2.9,2.9v21c0,1.6,1.3,2.9,2.9,2.9s2.9-1.3,2.9-2.9v-21
				C295.5,16.9,294.2,15.6,292.6,15.6z"/>
			<path class="st0" d="M292.6,8c-0.8,0-1.5,0.3-2,0.8c-0.6,0.6-0.8,1.2-0.8,2c0,0.8,0.3,1.5,0.8,2c0.6,0.6,1.2,0.8,2,0.8
				c0.8,0,1.5-0.3,2-0.8c0.6-0.6,0.8-1.2,0.8-2c0-0.8-0.3-1.5-0.8-2C294.1,8.2,293.4,8,292.6,8z"/>
		</g>
		<g>
			<path class="st0" d="M235.3,16.6c-3.4,1.4-5.9,3.8-7.4,7.1c-1.5,3.4-1.5,6.8-0.1,10.3c1.4,3.4,3.8,5.9,7.1,7.4
				c3.4,1.5,6.8,1.5,10.3,0.1c3.4-1.4,5.9-3.8,7.4-7.1l0,0c0,0,1-2.9-1.6-3.8c-2.5-0.8-3.7,1.5-3.7,1.5c0,0,0,0,0,0l0,0
				c-0.7,1.6-1.9,3-3.4,3.8c-2.2,1.1-4.4,1.2-6.6,0.3c-1.3-0.6-2.3-1.4-3.1-2.5c0,0,0-0.1,0-0.1l17.5-7c1-0.4,1.5-1.5,1.1-2.4
				c0,0,0,0,0-0.1c-1.4-3.4-3.8-5.9-7.1-7.4C242.2,15.2,238.8,15.2,235.3,16.6z M245,23l-12.2,4.8c0,0-0.1,0-0.1-0.1
				c0.1-0.5,0.2-0.9,0.4-1.4c0.8-2.2,2.7-4,4.9-4.7c1.8-0.6,3.5-0.5,5.3,0.3C243.9,22.2,244.5,22.6,245,23C245,23,245,23,245,23z"/>
		</g>
		<g>
			<path class="st0" d="M219,0L219,0c-1.6,0-2.9,1.3-2.9,2.9v36.7c0,1.6,1.3,2.9,2.9,2.9h0c1.6,0,2.9-1.3,2.9-2.9V2.9
				C221.8,1.3,220.5,0,219,0z"/>
		</g>
		<g>
			<path class="st0" d="M178,34.1c-2.3-1.7-3.9,0.3-3.9,0.3l0,0c-1.5,1.5-3.3,2.2-5.4,2.2c-2.1,0-3.9-0.7-5.4-2.2
				c-1.5-1.5-2.2-3.3-2.2-5.4c0-2.1,0.7-3.9,2.2-5.4c1.5-1.5,3.3-2.2,5.4-2.2c2.1,0,3.9,0.7,5.4,2.2l0,0c0,0,2,2,4.1,0
				c2-1.8-0.1-4.1-0.1-4.1l0,0c-2.6-2.6-5.8-3.9-9.5-3.9c-3.7,0-6.9,1.3-9.5,3.9c-2.6,2.6-3.9,5.8-3.9,9.5c0,3.7,1.3,6.9,3.9,9.5
				c2.6,2.6,5.8,3.9,9.5,3.9c3.7,0,6.9-1.3,9.5-3.9l0,0C178.2,38.5,180.4,35.8,178,34.1z"/>
		</g>
		<g>
			<path class="st0" d="M197.7,15.4c-3.7,0-6.9,1.3-9.5,3.9c-2.6,2.6-3.9,5.8-3.9,9.5c0,3.7,1.3,6.9,3.9,9.5
				c2.6,2.6,5.8,3.9,9.5,3.9c3.7,0,6.9-1.3,9.5-3.9c2.6-2.6,3.9-5.8,3.9-9.5c0-3.7-1.3-6.9-3.9-9.5
				C204.5,16.7,201.4,15.4,197.7,15.4z M203.1,34.2c-1.5,1.5-3.3,2.2-5.4,2.2c-2.1,0-3.9-0.7-5.4-2.2c-1.5-1.5-2.2-3.3-2.2-5.4
				c0-2.1,0.7-3.9,2.2-5.4c1.5-1.5,3.3-2.2,5.4-2.2c2.1,0,3.9,0.7,5.4,2.2c1.5,1.5,2.2,3.3,2.2,5.4
				C205.3,30.9,204.6,32.7,203.1,34.2z"/>
		</g>
		<g>
			<path class="st0" d="M313.9,15.4c-3.7,0-6.9,1.3-9.5,3.9c-2.6,2.6-3.9,5.8-3.9,9.5c0,3.7,1.3,6.9,3.9,9.5
				c2.6,2.6,5.8,3.9,9.5,3.9c3.7,0,6.9-1.3,9.5-3.9c2.6-2.6,3.9-5.8,3.9-9.5c0-3.7-1.3-6.9-3.9-9.5
				C320.7,16.7,317.6,15.4,313.9,15.4z M319.3,34.2c-1.5,1.5-3.3,2.2-5.4,2.2c-2.1,0-3.9-0.7-5.4-2.2c-1.5-1.5-2.2-3.3-2.2-5.4
				c0-2.1,0.7-3.9,2.2-5.4c1.5-1.5,3.3-2.2,5.4-2.2c2.1,0,3.9,0.7,5.4,2.2c1.5,1.5,2.2,3.3,2.2,5.4
				C321.5,30.9,320.8,32.7,319.3,34.2z"/>
		</g>
		<g>
			<g>
				<path class="st0" d="M281.9,27.7c-1.6,0-2.9,1.3-2.9,2.8l-0.2,9c0,1.6,1.3,2.9,2.8,2.9s2.9-1.3,2.9-2.8l0.2-9
					C284.7,29,283.5,27.7,281.9,27.7z"/>
			</g>
			<g>
				<path class="st0" d="M271.4,15.6c-3.7,0-6.9,1.2-9.5,3.8c-2.6,2.6-4,5.7-4,9.4c0,3.7,1.2,6.9,3.8,9.5c2.6,2.6,5.7,4,9.4,4
					c3.7,0,6.9-1.2,9.5-3.8c2.6-2.6,4-5.7,4-9.4c0-3.7-1.2-6.9-3.8-9.5C278.2,17,275.1,15.7,271.4,15.6z M276.6,34.4
					c-1.5,1.5-3.3,2.2-5.4,2.2c-2.1,0-3.9-0.8-5.4-2.3c-1.5-1.5-2.2-3.3-2.2-5.4c0-2.1,0.8-3.9,2.3-5.4c1.5-1.5,3.3-2.2,5.4-2.2
					c2.1,0,3.9,0.8,5.4,2.3c1.5,1.5,2.2,3.3,2.2,5.4C278.9,31.1,278.1,32.9,276.6,34.4z"/>
			</g>
			<g>
				<g>
					<path class="st0" d="M261.6,51.1L261.6,51.1c2.6,2.7,5.7,4,9.4,4c3.7,0,6.9-1.2,9.5-3.8c2.6-2.6,4-5.7,4-9.4l0.1-10.6
						c0-1.5-1.2-2.8-2.7-2.8l0,0c-1.6,0-3,1.3-3,2.9l-0.1,10.3c0,1.9-0.7,3.8-2,5.2c-1.7,1.9-3.9,2.7-6.5,2.4
						c-1.7-0.2-3.3-1-4.5-2.2l0,0c0,0-2.2-2.1-4.3-0.2C259.2,48.9,261.6,51.1,261.6,51.1z"/>
				</g>
			</g>
		</g>
	</g>
</g>
<g>
	<g>
		<path class="st1" d="M587.8,80.9c0,2.9-2.3,5.2-5.2,5.2c-2.9,0-5.2-2.3-5.2-5.2c0-2.9,2.3-5.2,5.2-5.2
			C585.4,75.6,587.8,78,587.8,80.9z"/>
		<path class="st2" d="M604.3,80.9c0,2.9-2.3,5.2-5.2,5.2c-2.9,0-5.2-2.3-5.2-5.2c0-2.9,2.3-5.2,5.2-5.2
			C602,75.6,604.3,78,604.3,80.9z"/>
		<path class="st3" d="M620.9,80.9c0,2.9-2.3,5.2-5.2,5.2c-2.9,0-5.2-2.3-5.2-5.2c0-2.9,2.3-5.2,5.2-5.2
			C618.5,75.6,620.9,78,620.9,80.9z"/>
		<path class="st4" d="M637.4,80.9c0,2.9-2.3,5.2-5.2,5.2c-2.9,0-5.2-2.3-5.2-5.2c0-2.9,2.3-5.2,5.2-5.2
			C635.1,75.6,637.4,78,637.4,80.9z"/>
	</g>
	<g>
		<path class="st0" d="M586,131.8c-15.8,0-28.7-12.9-28.7-28.7c0-0.9,0-1.8,0.1-2.6c-7-6.1-11.2-15.1-11.2-24.5
			c0-17.9,14.5-32.4,32.3-32.5c6.4-10.7,18.1-17.4,30.7-17.4c15.9,0,29.8,10.6,34.3,25.4c0.4,0,0.9,0,1.3,0
			c13.5,0,24.5,11,24.5,24.5c0,2.7-0.5,5.4-1.3,8c2.3,3.2,3.6,7.1,3.6,11.2c0,10.6-8.6,19.2-19.2,19.2c-0.2,0-0.4,0-0.6,0
			c-5.9,8.6-16.3,13.9-27.7,13.9c-6.4,0-12.6-1.7-17.9-4.8C600.9,128.7,593.7,131.8,586,131.8z M578.8,54.2
			c-12,0-21.8,9.8-21.8,21.8c0,7.1,3.5,13.7,9.3,17.8l2.9,2l-0.7,3.5c-0.3,1.2-0.4,2.5-0.4,3.8c0,9.9,8,17.9,17.9,17.9
			c6,0,11.5-2.9,14.8-7.9l3.4-5l4.6,3.9c4.1,3.5,9.6,5.4,15.4,5.4c8.8,0,16.7-4.5,20.1-11.4l1.9-3.9l4.2,1.1
			c0.7,0.2,1.4,0.3,2.1,0.3c4.7,0,8.4-3.8,8.4-8.4c0-2.4-1-4.6-2.8-6.2l-3.1-2.8l1.9-3.7c1.1-2,1.6-4.2,1.6-6.4
			c0-7.6-6.2-13.8-13.8-13.8c-1.3,0-2.6,0.2-3.9,0.6l-6,1.8l-0.9-6.2c-1.7-12.3-12.4-21.5-24.9-21.5c-9.7,0-18.6,5.7-22.7,14.4
			l-1.6,3.5l-3.8-0.4C580.4,54.2,579.6,54.2,578.8,54.2z"/>
	</g>
</g>
</svg>
