<?xml version="1.0" encoding="UTF-8" standalone="no"?>
<!-- Created with Inkscape (http://www.inkscape.org/) -->

<svg
   xmlns:dc="http://purl.org/dc/elements/1.1/"
   xmlns:cc="http://creativecommons.org/ns#"
   xmlns:rdf="http://www.w3.org/1999/02/22-rdf-syntax-ns#"
   xmlns:svg="http://www.w3.org/2000/svg"
   xmlns="http://www.w3.org/2000/svg"
   xmlns:sodipodi="http://sodipodi.sourceforge.net/DTD/sodipodi-0.dtd"
   xmlns:inkscape="http://www.inkscape.org/namespaces/inkscape"
   width="128"
   height="22.617804"
   viewBox="0 0 33.866664 5.9842941"
   version="1.1"
   id="svg1062"
   inkscape:version="0.92.4 (5da689c313, 2019-01-14)"
   sodipodi:docname="ies-floridablanca-logo-v3.svg">
  <defs
     id="defs1056" />
  <sodipodi:namedview
     id="base"
     pagecolor="#ffffff"
     bordercolor="#666666"
     borderopacity="1.0"
     inkscape:pageopacity="0.0"
     inkscape:pageshadow="2"
     inkscape:zoom="4"
     inkscape:cx="39.317274"
     inkscape:cy="6.8963049"
     inkscape:document-units="mm"
     inkscape:current-layer="layer1"
     showgrid="false"
     showguides="true"
     inkscape:guide-bbox="true"
     inkscape:window-width="1920"
     inkscape:window-height="1051"
     inkscape:window-x="-9"
     inkscape:window-y="-9"
     inkscape:window-maximized="1"
     fit-margin-top="0"
     fit-margin-left="0"
     fit-margin-right="0"
     fit-margin-bottom="0"
     units="px" />
  <metadata
     id="metadata1059">
    <rdf:RDF>
      <cc:Work
         rdf:about="">
        <dc:format>image/svg+xml</dc:format>
        <dc:type
           rdf:resource="http://purl.org/dc/dcmitype/StillImage" />
        <dc:title></dc:title>
      </cc:Work>
    </rdf:RDF>
  </metadata>
  <g
     inkscape:label="Capa 1"
     inkscape:groupmode="layer"
     id="layer1"
     transform="translate(433.39006,-500.04034)">
    <flowRoot
       xml:space="preserve"
       id="flowRoot843"
       style="font-style:normal;font-variant:normal;font-weight:normal;font-stretch:normal;font-size:16px;line-height:1.25;font-family:Barlow;-inkscape-font-specification:Barlow;letter-spacing:0px;word-spacing:0px;fill:#000000;fill-opacity:1;stroke:none"
       transform="matrix(0.26458333,0,0,0.26458333,-432.88872,233.35337)"><flowRegion
         id="flowRegion845"><rect
           id="rect847"
           width="50.714287"
           height="46.42857"
           x="613.57141"
           y="691.57141" /></flowRegion><flowPara
         id="flowPara849"></flowPara></flowRoot>    <g
       id="g960">
      <path
         sodipodi:nodetypes="ccccccccccccccccscccccccscccccccccsccccccccccccccccccccccccccc"
         inkscape:connector-curvature="0"
         id="path860-0-3-3"
         d="m -431.97852,500.04883 c -0.25024,0.0173 -0.47442,0.059 -0.63086,0.1582 -0.0857,0.0543 -0.16527,0.14705 -0.24804,0.26172 -0.0828,0.11467 -0.16486,0.25069 -0.24024,0.39063 -0.0754,0.13993 -0.1428,0.2838 -0.19336,0.41015 -0.0505,0.12635 -0.0852,0.2317 -0.0918,0.31836 -0.0212,0.27919 0.008,0.74938 0.0527,1.04492 0.0169,0.11193 0.0937,0.22892 0.19727,0.38086 0.10354,0.15194 0.23692,0.32721 0.37109,0.50195 0.13417,0.17475 0.26836,0.34785 0.375,0.49415 0.10664,0.14629 0.18689,0.27392 0.20117,0.3164 0.0385,0.11435 0.0422,0.32287 0.002,0.53516 -0.0403,0.21229 -0.12347,0.43079 -0.23438,0.57617 -0.10807,0.14166 -0.28584,0.24262 -0.41992,0.30469 -0.067,0.031 -0.1196,0.0509 -0.15625,0.0684 -0.009,0.004 -0.0182,0.008 -0.0293,0.0156 -0.003,0.002 -0.006,0.005 -0.01,0.008 -0.004,0.003 -0.0113,0.0112 -0.0117,0.0117 -4.3e-4,5.3e-4 -0.0154,0.0269 -0.0156,0.0273 -1.7e-4,4.5e-4 -0.002,0.0504 -0.002,0.0508 9e-5,4.3e-4 0.0231,0.0426 0.0234,0.043 3.7e-4,3.5e-4 0.0247,0.0173 0.0254,0.0176 6.6e-4,2.9e-4 0.0111,0.005 0.0156,0.006 0.004,10e-4 0.008,10e-4 0.0117,0.002 0.0137,0.002 0.025,0.002 0.0371,0.002 h 0.95899 c 0.016,-2.9e-4 0.0315,-0.005 0.0449,-0.0137 6.7e-4,1e-5 10e-4,1e-5 0.002,0 0.0109,-0.002 0.0319,-0.006 0.0566,-0.008 0.0495,-0.004 0.11805,-0.006 0.18555,-0.006 0.0675,2e-5 0.13569,0.002 0.18555,0.006 0.0249,0.002 0.0453,0.006 0.0566,0.008 0.006,0.001 0.008,0.003 0.006,0.002 0.0125,0.007 0.0266,0.0113 0.041,0.0117 h 0.68945 c 0.0122,0 0.0214,10e-4 0.043,-0.006 0.005,-0.002 0.0189,-0.009 0.0195,-0.01 6.1e-4,-3.7e-4 0.0231,-0.0191 0.0234,-0.0195 3.7e-4,-4.5e-4 0.0194,-0.0385 0.0195,-0.0391 1.1e-4,-5.3e-4 -0.002,-0.0365 -0.002,-0.0371 -1.4e-4,-5.8e-4 -0.004,-0.0193 -0.008,-0.0254 -0.003,-0.006 -0.007,-0.01 -0.01,-0.0137 -0.006,-0.007 -0.011,-0.0116 -0.0156,-0.0156 -0.009,-0.008 -0.0185,-0.0137 -0.0274,-0.0195 -0.0355,-0.0234 -0.0843,-0.0517 -0.14256,-0.0898 -0.11648,-0.0763 -0.25654,-0.19016 -0.31445,-0.33203 -0.13155,-0.32222 -0.21588,-0.84204 -0.11328,-1.43164 0.0457,-0.26253 0.3297,-0.66495 0.61719,-1.01563 0.14374,-0.17534 0.28676,-0.34006 0.40039,-0.47656 0.0568,-0.0683 0.10769,-0.13034 0.14648,-0.18359 0.0388,-0.0532 0.0659,-0.0944 0.082,-0.14258 0.0282,-0.084 0.0355,-0.20402 0.0391,-0.36133 0.004,-0.15731 10e-5,-0.34477 -0.008,-0.52734 -0.008,-0.18257 -0.0203,-0.35995 -0.0351,-0.5 -0.007,-0.07 -0.0166,-0.13157 -0.0254,-0.17969 -0.004,-0.0241 -0.008,-0.0437 -0.0137,-0.0625 -0.005,-0.0188 -0.009,-0.0354 -0.0254,-0.0586 -0.0379,-0.0534 -0.087,-0.0764 -0.15625,-0.11133 -0.0693,-0.0349 -0.15674,-0.0727 -0.25781,-0.10742 -0.20213,-0.0694 -0.45642,-0.13291 -0.71289,-0.16016 -0.25251,-0.0268 -0.52905,-0.0368 -0.7793,-0.0195 z"
         style="color:#000000;font-style:normal;font-variant:normal;font-weight:normal;font-stretch:normal;font-size:medium;line-height:normal;font-family:sans-serif;font-variant-ligatures:normal;font-variant-position:normal;font-variant-caps:normal;font-variant-numeric:normal;font-variant-alternates:normal;font-feature-settings:normal;text-indent:0;text-align:start;text-decoration:none;text-decoration-line:none;text-decoration-style:solid;text-decoration-color:#000000;letter-spacing:normal;word-spacing:normal;text-transform:none;writing-mode:lr-tb;direction:ltr;text-orientation:mixed;dominant-baseline:auto;baseline-shift:baseline;text-anchor:start;white-space:normal;shape-padding:0;clip-rule:nonzero;display:inline;overflow:visible;visibility:visible;opacity:1;isolation:auto;mix-blend-mode:normal;color-interpolation:sRGB;color-interpolation-filters:linearRGB;solid-color:#000000;solid-opacity:1;vector-effect:none;fill:#142469;fill-opacity:1;fill-rule:nonzero;stroke:none;stroke-width:0.171;stroke-linecap:round;stroke-linejoin:round;stroke-miterlimit:4;stroke-dasharray:none;stroke-dashoffset:0;stroke-opacity:1;color-rendering:auto;image-rendering:auto;shape-rendering:auto;text-rendering:auto;enable-background:accumulate" />
      <path
         sodipodi:nodetypes="zzczzczzzzzz"
         inkscape:connector-curvature="0"
         id="path951-4-5"
         d="m -432.34197,500.26413 c 0.0417,-0.0466 0.24534,-0.0658 0.30118,-0.0389 0.0558,0.0269 0.22719,0.48689 0.24612,0.66712 0.0546,-0.16306 0.0334,-0.64892 0.0907,-0.68008 0.0573,-0.0312 0.33436,-0.0177 0.39509,0.0389 0.0607,0.0566 0.0323,0.80582 -0.013,1.02334 0.11024,-0.21643 0.23173,-0.95248 0.29794,-0.97801 0.0662,-0.0255 0.43354,0.0581 0.47929,0.15221 0.0457,0.0941 -0.20139,0.91378 -0.37566,1.24032 -0.17427,0.32654 -0.51427,0.69682 -0.80313,0.60559 -0.28887,-0.0912 -0.36902,-0.65251 -0.43071,-0.9942 -0.0617,-0.34169 -0.22952,-0.98966 -0.18783,-1.0363 z"
         style="display:inline;fill:#ffffff;fill-opacity:1;stroke:none;stroke-width:0.04517855px;stroke-linecap:butt;stroke-linejoin:miter;stroke-opacity:1" />
      <path
         sodipodi:nodetypes="czzzzzzzzzszzzzccc"
         inkscape:connector-curvature="0"
         id="path894-9-3"
         d="m -431.98963,505.9954 c 0.0225,-0.0664 0.0557,-0.23872 0.0461,-0.51416 -0.01,-0.27543 0.007,-1.47101 -0.0454,-1.57064 -0.0522,-0.0996 -0.13157,-0.0235 -0.35947,-0.25907 -0.2279,-0.23561 -0.72644,-1.08631 -0.76427,-1.36662 -0.0378,-0.28031 -0.011,-0.64788 0.13731,-1.10381 0.14828,-0.45592 0.41656,-0.89072 0.49743,-0.89106 0.0809,-3.4e-4 0.41254,1.93159 0.55377,2.05964 0.14123,0.12806 0.78257,0.0223 0.92619,-0.10039 0.14362,-0.12273 0.53509,-1.6947 0.60559,-1.72932 0.0705,-0.0346 0.17407,0.0199 0.20726,0.0745 0.0346,0.0569 0.0964,0.52258 0.0453,0.88085 -0.051,0.35827 -0.20304,0.85467 -0.50195,1.25651 -0.29891,0.40185 -0.81418,0.63689 -0.91648,0.68331 -0.10229,0.0464 0.0273,1.51932 0.0575,1.96644 0.0302,0.44713 0.0606,0.56527 0.0889,0.61384 h -0.57774 z"
         style="display:inline;fill:#ffffff;fill-opacity:1;stroke:none;stroke-width:0.0452497;stroke-linecap:butt;stroke-linejoin:miter;stroke-miterlimit:4;stroke-dasharray:none;stroke-opacity:1" />
      <path
         sodipodi:nodetypes="zzzzzzz"
         inkscape:connector-curvature="0"
         id="path896-0-3"
         d="m -432.59508,500.91863 c -0.0731,0.32333 -0.10025,0.71814 -0.0756,1.06023 0.0247,0.3421 0.0861,0.64401 0.28395,0.87246 0.19783,0.22845 0.44718,0.29236 0.69384,0.27937 0.24667,-0.013 -0.0606,-0.0434 -0.25189,-0.2496 -0.19126,-0.20619 -0.3053,-0.42737 -0.39844,-0.79918 -0.0931,-0.37181 -0.17879,-1.4866 -0.25189,-1.16328 z"
         style="display:inline;fill:#142469;fill-opacity:1;stroke:none;stroke-width:0.04517855px;stroke-linecap:butt;stroke-linejoin:miter;stroke-opacity:1" />
      <path
         sodipodi:nodetypes="zzzzzz"
         inkscape:connector-curvature="0"
         id="path898-5-6"
         d="m -431.92185,502.6063 c -0.0649,-0.11881 0.0962,0.0579 0.6137,-0.071 0.51755,-0.12885 0.86397,-0.70524 0.78544,-0.45569 -0.0785,0.24955 -0.20693,0.44849 -0.35723,0.58851 -0.15029,0.14002 -0.30311,0.21131 -0.48317,0.20838 -0.18006,-0.003 -0.49381,-0.1514 -0.55874,-0.27021 z"
         style="display:inline;fill:#142469;fill-opacity:1;stroke:none;stroke-width:0.04517855px;stroke-linecap:butt;stroke-linejoin:miter;stroke-opacity:1" />
      <path
         sodipodi:nodetypes="zzzzzzzz"
         inkscape:connector-curvature="0"
         id="path900-4-3"
         d="m -431.71527,502.01217 c 0.0718,-0.13048 0.22359,-0.19004 0.30671,-0.27789 0.0831,-0.0879 0.0415,-0.18691 -0.0204,-0.22876 -0.062,-0.0419 -0.18221,-0.0238 -0.21576,-0.0442 -0.0335,-0.0203 -0.0649,-0.16852 -0.13901,-0.19291 -0.0741,-0.0244 -0.16729,-0.0115 -0.22738,0.0784 -0.0601,0.0899 0.03,0.3746 0.0688,0.45294 0.0388,0.0783 0.1553,0.34286 0.22714,0.21238 z"
         style="display:inline;fill:#d32476;fill-opacity:1;stroke:none;stroke-width:0.04517855px;stroke-linecap:butt;stroke-linejoin:miter;stroke-opacity:1" />
      <path
         sodipodi:nodetypes="zzzz"
         inkscape:connector-curvature="0"
         id="path908-9-9"
         d="m -433.00498,504.26878 c 0.22831,0.0356 0.30975,0.31221 0.21983,0.43508 -0.0899,0.12288 -0.36986,0.13419 -0.44424,-0.009 -0.0744,-0.14334 -0.004,-0.46154 0.22441,-0.42592 z"
         style="display:inline;fill:#142469;fill-opacity:1;stroke:#142469;stroke-width:0.09035711;stroke-linecap:butt;stroke-linejoin:miter;stroke-miterlimit:4;stroke-dasharray:none;stroke-opacity:1" />
      <path
         id="text898-2"
         transform="matrix(0.26458333,0,0,0.26458333,-433.39006,500.04034)"
         d="M 85.833984 1.4511719 C 85.797399 1.4511719 85.771539 1.4666881 85.755859 1.4980469 L 85.457031 2.0371094 C 85.430899 2.0841475 85.453595 2.1210938 85.505859 2.1210938 L 85.6875 2.1210938 C 85.724085 2.1210938 85.744719 2.1055775 85.765625 2.0742188 L 86.101562 1.5351562 C 86.127695 1.4881181 86.110858 1.4511719 86.058594 1.4511719 L 85.833984 1.4511719 z M 95.417969 1.4785156 C 94.70717 1.4785156 94.267578 1.8117536 94.267578 2.4023438 C 94.267578 3.0033869 94.7322 3.1963955 95.359375 3.4472656 C 96.038815 3.7294946 96.322266 3.9023587 96.322266 4.2734375 C 96.322266 4.6392898 96.048778 4.8964844 95.5 4.8964844 C 94.925089 4.8964844 94.576172 4.6146409 94.576172 4.2226562 L 94.576172 4.0957031 C 94.576172 4.0538914 94.549624 4.0292969 94.507812 4.0292969 L 94.283203 4.0292969 C 94.241391 4.0292969 94.214844 4.0538914 94.214844 4.0957031 L 94.214844 4.2421875 C 94.214844 4.8327777 94.701093 5.2207031 95.474609 5.2207031 C 96.253352 5.2207031 96.693359 4.8274968 96.693359 4.2578125 C 96.693359 3.6619959 96.201449 3.4175731 95.558594 3.15625 C 94.926192 2.9106063 94.632812 2.7845628 94.632812 2.3925781 C 94.632812 2.0110464 94.905197 1.8027344 95.396484 1.8027344 C 95.981848 1.8027344 96.294922 2.1002029 96.294922 2.4921875 L 96.294922 2.5703125 C 96.294922 2.6121242 96.32147 2.6386719 96.363281 2.6386719 L 96.59375 2.6386719 C 96.635562 2.6386719 96.660156 2.6121242 96.660156 2.5703125 L 96.660156 2.4707031 C 96.660156 1.8748865 96.191485 1.4785156 95.417969 1.4785156 z M 19.90625 1.5195312 C 19.864438 1.5195312 19.837891 1.5460789 19.837891 1.5878906 L 19.837891 5.109375 C 19.837891 5.1511867 19.864438 5.1777344 19.90625 5.1777344 L 20.140625 5.1777344 C 20.182437 5.1777344 20.208984 5.1511867 20.208984 5.109375 L 20.208984 1.5878906 C 20.208984 1.5460789 20.182437 1.5195312 20.140625 1.5195312 L 19.90625 1.5195312 z M 32.527344 1.5195312 C 32.360097 1.5195312 32.246094 1.6303155 32.246094 1.7871094 C 32.246094 1.9491297 32.360097 2.0585938 32.527344 2.0585938 C 32.694591 2.0585938 32.810547 1.9491297 32.810547 1.7871094 C 32.810547 1.6303155 32.694591 1.5195312 32.527344 1.5195312 z M 51.615234 1.5195312 C 51.573423 1.5195312 51.546875 1.5460789 51.546875 1.5878906 L 51.546875 2.7949219 C 51.546875 2.8158277 51.531304 2.8255933 51.515625 2.8046875 C 51.364058 2.606082 51.128565 2.4921875 50.851562 2.4921875 C 50.344596 2.4921875 50.010201 2.7732349 49.884766 3.2070312 C 49.832501 3.3847309 49.822266 3.5993721 49.822266 3.8554688 C 49.822266 4.1220183 49.838993 4.3366051 49.896484 4.5195312 C 50.021919 4.9428747 50.355049 5.2207031 50.851562 5.2207031 C 51.128565 5.2207031 51.364058 5.1042226 51.515625 4.9003906 C 51.531304 4.8847112 51.546875 4.8912035 51.546875 4.9121094 L 51.546875 5.109375 C 51.546875 5.1511867 51.573423 5.1777344 51.615234 5.1777344 L 51.851562 5.1777344 C 51.893374 5.1777344 51.917969 5.1511867 51.917969 5.109375 L 51.917969 1.5878906 C 51.917969 1.5460789 51.893374 1.5195312 51.851562 1.5195312 L 51.615234 1.5195312 z M 59.695312 1.5195312 C 59.653501 1.5195312 59.626953 1.5460789 59.626953 1.5878906 L 59.626953 5.109375 C 59.626953 5.1511867 59.653501 5.1777344 59.695312 5.1777344 L 61.925781 5.1777344 C 61.967593 5.1777344 61.994141 5.1511867 61.994141 5.109375 L 61.994141 4.921875 C 61.994141 4.8800633 61.967593 4.8535156 61.925781 4.8535156 L 60.023438 4.8535156 C 60.007758 4.8535156 59.998047 4.8438044 59.998047 4.828125 L 59.998047 3.5273438 C 59.998047 3.5116644 60.007758 3.5 60.023438 3.5 L 61.351562 3.5 C 61.393374 3.5 61.419922 3.4734523 61.419922 3.4316406 L 61.419922 3.2441406 C 61.419922 3.2023289 61.393374 3.1757812 61.351562 3.1757812 L 60.023438 3.1757812 C 60.007758 3.1757812 59.998047 3.16607 59.998047 3.1503906 L 59.998047 1.8691406 C 59.998047 1.8534612 60.007758 1.84375 60.023438 1.84375 L 61.925781 1.84375 C 61.967593 1.84375 61.994141 1.8172023 61.994141 1.7753906 L 61.994141 1.5878906 C 61.994141 1.5460789 61.967593 1.5195312 61.925781 1.5195312 L 59.695312 1.5195312 z M 65.400391 1.5195312 C 65.358579 1.5195312 65.332031 1.5460789 65.332031 1.5878906 L 65.332031 2.7949219 C 65.332031 2.8158277 65.316461 2.8255933 65.300781 2.8046875 C 65.149214 2.606082 64.913721 2.4921875 64.636719 2.4921875 C 64.129752 2.4921875 63.795357 2.7732349 63.669922 3.2070312 C 63.617657 3.3847309 63.607422 3.5993721 63.607422 3.8554688 C 63.607422 4.1220183 63.622196 4.3366051 63.679688 4.5195312 C 63.805123 4.9428747 64.140205 5.2207031 64.636719 5.2207031 C 64.913721 5.2207031 65.149214 5.1042226 65.300781 4.9003906 C 65.316461 4.8847112 65.332031 4.8912035 65.332031 4.9121094 L 65.332031 5.109375 C 65.332031 5.1511867 65.358579 5.1777344 65.400391 5.1777344 L 65.634766 5.1777344 C 65.676577 5.1777344 65.703125 5.1511867 65.703125 5.109375 L 65.703125 1.5878906 C 65.703125 1.5460789 65.676577 1.5195312 65.634766 1.5195312 L 65.400391 1.5195312 z M 82.613281 1.5195312 C 82.446034 1.5195312 82.330078 1.6303155 82.330078 1.7871094 C 82.330078 1.9491297 82.446034 2.0585938 82.613281 2.0585938 C 82.780528 2.0585938 82.894531 1.9491297 82.894531 1.7871094 C 82.894531 1.6303155 82.780528 1.5195312 82.613281 1.5195312 z M 115.15039 1.5195312 C 115.10858 1.5195312 115.08203 1.5460789 115.08203 1.5878906 L 115.08203 2.7949219 C 115.08203 2.8158277 115.06646 2.8255933 115.05078 2.8046875 C 114.89921 2.606082 114.66372 2.4921875 114.38672 2.4921875 C 113.87975 2.4921875 113.54536 2.7732349 113.41992 3.2070312 C 113.36766 3.3847309 113.35742 3.5993721 113.35742 3.8554688 C 113.35742 4.1220183 113.3722 4.3366051 113.42969 4.5195312 C 113.55512 4.9428747 113.8902 5.2207031 114.38672 5.2207031 C 114.66372 5.2207031 114.89921 5.1042226 115.05078 4.9003906 C 115.06646 4.8847112 115.08203 4.8912035 115.08203 4.9121094 L 115.08203 5.109375 C 115.08203 5.1511867 115.10858 5.1777344 115.15039 5.1777344 L 115.38477 5.1777344 C 115.42658 5.1777344 115.45312 5.1511867 115.45312 5.109375 L 115.45312 1.5878906 C 115.45312 1.5460789 115.42658 1.5195312 115.38477 1.5195312 L 115.15039 1.5195312 z M 124.05859 1.5195312 C 123.89135 1.5195312 123.77539 1.6303155 123.77539 1.7871094 C 123.77539 1.9491297 123.89135 2.0585938 124.05859 2.0585938 C 124.22584 2.0585938 124.33984 1.9491297 124.33984 1.7871094 C 124.33984 1.6303155 124.22584 1.5195312 124.05859 1.5195312 z M 29.646484 1.8535156 C 29.604673 1.8535156 29.578125 1.8800633 29.578125 1.921875 L 29.578125 2.5078125 C 29.578125 2.5234919 29.568414 2.5332031 29.552734 2.5332031 L 29.253906 2.5332031 C 29.212095 2.5332031 29.185547 2.5597508 29.185547 2.6015625 L 29.185547 2.7734375 C 29.185547 2.8152492 29.212095 2.8417969 29.253906 2.8417969 L 29.552734 2.8417969 C 29.568414 2.8417969 29.578125 2.8515081 29.578125 2.8671875 L 29.578125 4.5097656 C 29.578125 5.0533176 29.887095 5.1738281 30.341797 5.1738281 L 30.519531 5.1738281 C 30.566569 5.1686017 30.585938 5.1414211 30.585938 5.0996094 L 30.585938 4.9160156 C 30.585938 4.8742039 30.561343 4.8496094 30.519531 4.8496094 L 30.404297 4.8496094 C 30.090709 4.8496094 29.939453 4.7342513 29.939453 4.3945312 L 29.939453 2.8671875 C 29.939453 2.8515081 29.949164 2.8417969 29.964844 2.8417969 L 30.535156 2.8417969 C 30.576968 2.8417969 30.601562 2.8152492 30.601562 2.7734375 L 30.601562 2.6015625 C 30.601562 2.5597508 30.576968 2.5332031 30.535156 2.5332031 L 29.964844 2.5332031 C 29.949164 2.5332031 29.939453 2.5234919 29.939453 2.5078125 L 29.939453 1.921875 C 29.939453 1.8800633 29.912905 1.8535156 29.871094 1.8535156 L 29.646484 1.8535156 z M 34.796875 1.8535156 C 34.755063 1.8535156 34.730469 1.8800633 34.730469 1.921875 L 34.730469 2.5078125 C 34.730469 2.5234919 34.718804 2.5332031 34.703125 2.5332031 L 34.40625 2.5332031 C 34.364438 2.5332031 34.337891 2.5597508 34.337891 2.6015625 L 34.337891 2.7734375 C 34.337891 2.8152492 34.364438 2.8417969 34.40625 2.8417969 L 34.703125 2.8417969 C 34.718804 2.8417969 34.730469 2.8515081 34.730469 2.8671875 L 34.730469 4.5097656 C 34.730469 5.0533176 35.037485 5.1738281 35.492188 5.1738281 L 35.669922 5.1738281 C 35.71696 5.1686017 35.738281 5.1414211 35.738281 5.0996094 L 35.738281 4.9160156 C 35.738281 4.8742039 35.711734 4.8496094 35.669922 4.8496094 L 35.554688 4.8496094 C 35.2411 4.8496094 35.089844 4.7342513 35.089844 4.3945312 L 35.089844 2.8671875 C 35.089844 2.8515081 35.101508 2.8417969 35.117188 2.8417969 L 35.685547 2.8417969 C 35.727359 2.8417969 35.753906 2.8152492 35.753906 2.7734375 L 35.753906 2.6015625 C 35.753906 2.5597508 35.727359 2.5332031 35.685547 2.5332031 L 35.117188 2.5332031 C 35.101508 2.5332031 35.089844 2.5234919 35.089844 2.5078125 L 35.089844 1.921875 C 35.089844 1.8800633 35.063296 1.8535156 35.021484 1.8535156 L 34.796875 1.8535156 z M 41.470703 1.8535156 C 41.428891 1.8535156 41.402344 1.8800633 41.402344 1.921875 L 41.402344 2.5078125 C 41.402344 2.5234919 41.392633 2.5332031 41.376953 2.5332031 L 41.078125 2.5332031 C 41.036313 2.5332031 41.009766 2.5597508 41.009766 2.6015625 L 41.009766 2.7734375 C 41.009766 2.8152492 41.036313 2.8417969 41.078125 2.8417969 L 41.376953 2.8417969 C 41.392633 2.8417969 41.402344 2.8515081 41.402344 2.8671875 L 41.402344 4.5097656 C 41.402344 5.0533176 41.711313 5.1738281 42.166016 5.1738281 L 42.34375 5.1738281 C 42.390788 5.1686017 42.410156 5.1414211 42.410156 5.0996094 L 42.410156 4.9160156 C 42.410156 4.8742039 42.385562 4.8496094 42.34375 4.8496094 L 42.228516 4.8496094 C 41.914928 4.8496094 41.763672 4.7342513 41.763672 4.3945312 L 41.763672 2.8671875 C 41.763672 2.8515081 41.773383 2.8417969 41.789062 2.8417969 L 42.359375 2.8417969 C 42.401187 2.8417969 42.425781 2.8152492 42.425781 2.7734375 L 42.425781 2.6015625 C 42.425781 2.5597508 42.401187 2.5332031 42.359375 2.5332031 L 41.789062 2.5332031 C 41.773383 2.5332031 41.763672 2.5234919 41.763672 2.5078125 L 41.763672 1.921875 C 41.763672 1.8800633 41.737124 1.8535156 41.695312 1.8535156 L 41.470703 1.8535156 z M 45.060547 2.4921875 C 44.543127 2.4921875 44.165185 2.7686414 44.029297 3.2128906 C 43.982259 3.3801374 43.962891 3.5954659 43.962891 3.8515625 C 43.962891 4.1024327 43.982892 4.3216674 44.035156 4.4941406 C 44.171044 4.9436163 44.548354 5.2207031 45.060547 5.2207031 C 45.557061 5.2207031 45.938331 4.9436163 46.074219 4.4941406 C 46.126483 4.3216674 46.146484 4.1024327 46.146484 3.8515625 C 46.146484 3.6059188 46.126483 3.3847309 46.074219 3.2070312 C 45.943557 2.7680085 45.562287 2.4921875 45.060547 2.4921875 z M 54.726562 2.4921875 C 54.209143 2.4921875 53.831779 2.7888055 53.716797 3.2382812 C 53.674985 3.4003016 53.669922 3.5791536 53.669922 3.8457031 C 53.669922 4.138385 53.696361 4.3730272 53.769531 4.5664062 C 53.910646 4.9688438 54.24958 5.2207031 54.746094 5.2207031 C 55.216475 5.2207031 55.55673 4.9901106 55.71875 4.6503906 C 55.739656 4.6138054 55.724085 4.5814527 55.6875 4.5605469 L 55.535156 4.4785156 C 55.498571 4.4576098 55.462945 4.4731804 55.447266 4.5097656 C 55.327057 4.7449564 55.101384 4.8951642 54.777344 4.9003906 C 54.395812 4.9003906 54.139577 4.6918067 54.066406 4.3886719 C 54.0455 4.3102749 54.035156 4.1802857 54.035156 4.0078125 C 54.035156 3.9921331 54.046821 3.9804688 54.0625 3.9804688 L 55.734375 3.9804688 C 55.776187 3.9804688 55.802734 3.9558742 55.802734 3.9140625 C 55.802734 3.6684188 55.797617 3.5317395 55.771484 3.390625 C 55.677408 2.8418465 55.348511 2.4921875 54.726562 2.4921875 z M 72.316406 2.4921875 C 71.809439 2.4921875 71.428169 2.7784614 71.302734 3.2070312 C 71.260923 3.3690516 71.234375 3.5582477 71.234375 3.8457031 C 71.234375 4.1122527 71.25047 4.3164409 71.302734 4.4941406 C 71.433396 4.9331634 71.804213 5.2207031 72.316406 5.2207031 C 72.8286 5.2207031 73.235315 4.9434532 73.339844 4.5410156 C 73.350297 4.5044304 73.356102 4.4720777 73.361328 4.4511719 C 73.366555 4.4041337 73.34064 4.3782733 73.298828 4.3730469 L 73.074219 4.3359375 C 73.032407 4.330711 73.00132 4.3474931 72.996094 4.3945312 L 72.990234 4.4003906 C 72.990234 4.4056171 72.989601 4.4153283 72.984375 4.4257812 C 72.926884 4.6923308 72.666579 4.8964844 72.316406 4.8964844 C 71.961007 4.8964844 71.720288 4.6859473 71.652344 4.3828125 C 71.626211 4.2782833 71.605469 4.1076591 71.605469 3.8515625 C 71.605469 3.6163717 71.626211 3.4320213 71.652344 3.3222656 C 71.720288 3.0243573 71.961007 2.8164062 72.316406 2.8164062 C 72.677032 2.8164062 72.932743 3.034919 72.990234 3.2910156 C 72.995461 3.3119215 73 3.3326098 73 3.3535156 C 73.010453 3.4005538 73.038266 3.4173358 73.080078 3.4121094 L 73.308594 3.3847656 C 73.350405 3.3795392 73.37632 3.3536788 73.371094 3.3066406 C 73.365867 3.2700554 73.355523 3.2182802 73.339844 3.1660156 C 73.235315 2.7949368 72.844279 2.4921875 72.316406 2.4921875 z M 75.935547 2.4921875 C 75.397221 2.4921875 75.011303 2.7532339 74.943359 3.1347656 C 74.938133 3.1713509 74.964048 3.1861798 75.005859 3.1914062 L 75.261719 3.2226562 C 75.30353 3.2278827 75.329391 3.2136867 75.339844 3.171875 C 75.397335 2.9523636 75.612139 2.8164062 75.941406 2.8164062 C 76.375203 2.8164062 76.552734 3.050905 76.552734 3.390625 L 76.552734 3.5839844 C 76.552734 3.5996638 76.543023 3.609375 76.527344 3.609375 L 75.919922 3.609375 C 75.240482 3.609375 74.84375 3.9343851 74.84375 4.4570312 C 74.84375 5.0058097 75.262782 5.2207031 75.707031 5.2207031 C 76.036298 5.2207031 76.328105 5.1159414 76.521484 4.9121094 C 76.537164 4.8912035 76.552734 4.9009692 76.552734 4.921875 L 76.552734 5.109375 C 76.552734 5.1511867 76.579282 5.1777344 76.621094 5.1777344 L 76.855469 5.1777344 C 76.89728 5.1777344 76.923828 5.1511867 76.923828 5.109375 L 76.923828 3.3691406 C 76.923828 2.8517209 76.573175 2.4921875 75.935547 2.4921875 z M 79.683594 2.4921875 C 79.176627 2.4921875 78.795357 2.7784614 78.669922 3.2070312 C 78.62811 3.3690516 78.601562 3.5582477 78.601562 3.8457031 C 78.601562 4.1122527 78.617657 4.3164409 78.669922 4.4941406 C 78.800583 4.9331634 79.1714 5.2207031 79.683594 5.2207031 C 80.195787 5.2207031 80.602502 4.9434532 80.707031 4.5410156 C 80.717484 4.5044304 80.723289 4.4720777 80.728516 4.4511719 C 80.733742 4.4041337 80.707827 4.3782733 80.666016 4.3730469 L 80.441406 4.3359375 C 80.399595 4.330711 80.368508 4.3474931 80.363281 4.3945312 L 80.357422 4.4003906 C 80.357422 4.4056171 80.356789 4.4153283 80.351562 4.4257812 C 80.294071 4.6923308 80.033767 4.8964844 79.683594 4.8964844 C 79.328194 4.8964844 79.087475 4.6859473 79.019531 4.3828125 C 78.993399 4.2782833 78.972656 4.1076591 78.972656 3.8515625 C 78.972656 3.6163717 78.993399 3.4320213 79.019531 3.3222656 C 79.087475 3.0243573 79.328194 2.8164062 79.683594 2.8164062 C 80.04422 2.8164062 80.299931 3.034919 80.357422 3.2910156 C 80.362648 3.3119215 80.367188 3.3326098 80.367188 3.3535156 C 80.37764 3.4005538 80.403501 3.4173358 80.445312 3.4121094 L 80.675781 3.3847656 C 80.717593 3.3795392 80.743508 3.3536788 80.738281 3.3066406 C 80.733055 3.2700554 80.722711 3.2182802 80.707031 3.1660156 C 80.602502 2.7949368 80.211466 2.4921875 79.683594 2.4921875 z M 85.666016 2.4921875 C 85.148596 2.4921875 84.772607 2.7686414 84.636719 3.2128906 C 84.589681 3.3801374 84.570312 3.5954659 84.570312 3.8515625 C 84.570312 4.1024327 84.590314 4.3216674 84.642578 4.4941406 C 84.778466 4.9436163 85.153822 5.2207031 85.666016 5.2207031 C 86.162529 5.2207031 86.545753 4.9436163 86.681641 4.4941406 C 86.733905 4.3216674 86.753906 4.1024327 86.753906 3.8515625 C 86.753906 3.6059188 86.733905 3.3847309 86.681641 3.2070312 C 86.550979 2.7680085 86.167756 2.4921875 85.666016 2.4921875 z M 99.363281 2.4921875 C 98.845862 2.4921875 98.470451 2.7888055 98.355469 3.2382812 C 98.313657 3.4003016 98.308594 3.5791536 98.308594 3.8457031 C 98.308594 4.138385 98.33308 4.3730272 98.40625 4.5664062 C 98.547364 4.9688438 98.888252 5.2207031 99.384766 5.2207031 C 99.855147 5.2207031 100.1954 4.9901106 100.35742 4.6503906 C 100.37833 4.6138054 100.3608 4.5814527 100.32422 4.5605469 L 100.17383 4.4785156 C 100.13724 4.4576098 100.09966 4.4731804 100.08398 4.5097656 C 99.963776 4.7449564 99.740056 4.8951642 99.416016 4.9003906 C 99.034484 4.9003906 98.778249 4.6918067 98.705078 4.3886719 C 98.684172 4.3102749 98.673828 4.1802857 98.673828 4.0078125 C 98.673828 3.9921331 98.683539 3.9804688 98.699219 3.9804688 L 100.37305 3.9804688 C 100.41486 3.9804688 100.43945 3.9558742 100.43945 3.9140625 C 100.43945 3.6684188 100.43434 3.5317395 100.4082 3.390625 C 100.31413 2.8418465 99.98523 2.4921875 99.363281 2.4921875 z M 103.16016 2.4921875 C 102.65319 2.4921875 102.27192 2.7784614 102.14648 3.2070312 C 102.10467 3.3690516 102.07812 3.5582477 102.07812 3.8457031 C 102.07812 4.1122527 102.09422 4.3164409 102.14648 4.4941406 C 102.27715 4.9331634 102.64796 5.2207031 103.16016 5.2207031 C 103.67235 5.2207031 104.07906 4.9434532 104.18359 4.5410156 C 104.19405 4.5044304 104.19985 4.4720777 104.20508 4.4511719 C 104.2103 4.4041337 104.18439 4.3782733 104.14258 4.3730469 L 103.91797 4.3359375 C 103.87616 4.330711 103.84507 4.3474931 103.83984 4.3945312 L 103.83398 4.4003906 C 103.83398 4.4056171 103.83335 4.4153283 103.82812 4.4257812 C 103.77063 4.6923308 103.51033 4.8964844 103.16016 4.8964844 C 102.80476 4.8964844 102.56404 4.6859473 102.49609 4.3828125 C 102.46996 4.2782833 102.44922 4.1076591 102.44922 3.8515625 C 102.44922 3.6163717 102.46996 3.4320213 102.49609 3.3222656 C 102.56404 3.0243573 102.80476 2.8164062 103.16016 2.8164062 C 103.52078 2.8164062 103.77649 3.034919 103.83398 3.2910156 C 103.83921 3.3119215 103.84375 3.3326098 103.84375 3.3535156 C 103.8542 3.4005538 103.88006 3.4173358 103.92188 3.4121094 L 104.15234 3.3847656 C 104.19416 3.3795392 104.22007 3.3536788 104.21484 3.3066406 C 104.20962 3.2700554 104.19927 3.2182802 104.18359 3.1660156 C 104.07906 2.7949368 103.68803 2.4921875 103.16016 2.4921875 z M 118.19727 2.4921875 C 117.65894 2.4921875 117.27302 2.7532339 117.20508 3.1347656 C 117.19985 3.1713509 117.22577 3.1861798 117.26758 3.1914062 L 117.52344 3.2226562 C 117.56525 3.2278827 117.59111 3.2136867 117.60156 3.171875 C 117.65905 2.9523636 117.87386 2.8164062 118.20312 2.8164062 C 118.63692 2.8164062 118.81445 3.050905 118.81445 3.390625 L 118.81445 3.5839844 C 118.81445 3.5996638 118.80279 3.609375 118.78711 3.609375 L 118.18164 3.609375 C 117.5022 3.609375 117.10547 3.9343851 117.10547 4.4570312 C 117.10547 5.0058097 117.52255 5.2207031 117.9668 5.2207031 C 118.29606 5.2207031 118.58982 5.1159414 118.7832 4.9121094 C 118.79888 4.8912035 118.81445 4.9009692 118.81445 4.921875 L 118.81445 5.109375 C 118.81445 5.1511867 118.841 5.1777344 118.88281 5.1777344 L 119.11719 5.1777344 C 119.159 5.1777344 119.18555 5.1511867 119.18555 5.109375 L 119.18555 3.3691406 C 119.18555 2.8517209 118.83489 2.4921875 118.19727 2.4921875 z M 127.01172 2.4921875 C 126.47339 2.4921875 126.08748 2.7532339 126.01953 3.1347656 C 126.0143 3.1713509 126.04022 3.1861798 126.08203 3.1914062 L 126.33789 3.2226562 C 126.3797 3.2278827 126.40556 3.2136867 126.41602 3.171875 C 126.47351 2.9523636 126.68831 2.8164062 127.01758 2.8164062 C 127.45137 2.8164062 127.62891 3.050905 127.62891 3.390625 L 127.62891 3.5839844 C 127.62891 3.5996638 127.6192 3.609375 127.60352 3.609375 L 126.99609 3.609375 C 126.31665 3.609375 125.91992 3.9343851 125.91992 4.4570312 C 125.91992 5.0058097 126.337 5.2207031 126.78125 5.2207031 C 127.11052 5.2207031 127.40428 5.1159414 127.59766 4.9121094 C 127.61334 4.8912035 127.62891 4.9009692 127.62891 4.921875 L 127.62891 5.109375 C 127.62891 5.1511867 127.65545 5.1777344 127.69727 5.1777344 L 127.93164 5.1777344 C 127.97345 5.1777344 128 5.1511867 128 5.109375 L 128 3.3691406 C 128 2.8517209 127.64935 2.4921875 127.01172 2.4921875 z M 23.207031 2.4960938 C 22.903896 2.4960938 22.65938 2.6014884 22.507812 2.8105469 C 22.49736 2.8314527 22.482422 2.8158277 22.482422 2.7949219 L 22.482422 2.6015625 C 22.482422 2.5597508 22.455874 2.5332031 22.414062 2.5332031 L 22.177734 2.5332031 C 22.135923 2.5332031 22.111328 2.5597508 22.111328 2.6015625 L 22.111328 5.109375 C 22.111328 5.1511867 22.135923 5.1777344 22.177734 5.1777344 L 22.414062 5.1777344 C 22.455874 5.1777344 22.482422 5.1511867 22.482422 5.109375 L 22.482422 3.3691406 C 22.519007 3.0398735 22.769601 2.8203125 23.125 2.8203125 C 23.496079 2.8203125 23.746094 3.0878512 23.746094 3.4746094 L 23.746094 5.109375 C 23.746094 5.1511867 23.772641 5.1777344 23.814453 5.1777344 L 24.048828 5.1777344 C 24.09064 5.1777344 24.117188 5.1511867 24.117188 5.109375 L 24.117188 3.4003906 C 24.117188 2.8516121 23.75581 2.4960938 23.207031 2.4960938 z M 89.597656 2.4960938 C 89.294521 2.4960938 89.048052 2.6014884 88.896484 2.8105469 C 88.886031 2.8314527 88.871094 2.8158277 88.871094 2.7949219 L 88.871094 2.6015625 C 88.871094 2.5597508 88.844546 2.5332031 88.802734 2.5332031 L 88.568359 2.5332031 C 88.526548 2.5332031 88.5 2.5597508 88.5 2.6015625 L 88.5 5.109375 C 88.5 5.1511867 88.526548 5.1777344 88.568359 5.1777344 L 88.802734 5.1777344 C 88.844546 5.1777344 88.871094 5.1511867 88.871094 5.109375 L 88.871094 3.3691406 C 88.907679 3.0398735 89.158272 2.8203125 89.513672 2.8203125 C 89.884751 2.8203125 90.134766 3.0878512 90.134766 3.4746094 L 90.134766 5.109375 C 90.134766 5.1511867 90.161313 5.1777344 90.203125 5.1777344 L 90.439453 5.1777344 C 90.481265 5.1777344 90.505859 5.1511867 90.505859 5.109375 L 90.505859 3.4003906 C 90.505859 2.8516121 90.146435 2.4960938 89.597656 2.4960938 z M 110.74805 2.4960938 C 110.44491 2.4960938 110.19844 2.6014884 110.04688 2.8105469 C 110.03642 2.8314527 110.02148 2.8158277 110.02148 2.7949219 L 110.02148 2.6015625 C 110.02148 2.5597508 109.99494 2.5332031 109.95312 2.5332031 L 109.71875 2.5332031 C 109.67694 2.5332031 109.65039 2.5597508 109.65039 2.6015625 L 109.65039 5.109375 C 109.65039 5.1511867 109.67694 5.1777344 109.71875 5.1777344 L 109.95312 5.1777344 C 109.99494 5.1777344 110.02148 5.1511867 110.02148 5.109375 L 110.02148 3.3691406 C 110.05807 3.0398735 110.30866 2.8203125 110.66406 2.8203125 C 111.03514 2.8203125 111.28711 3.0878512 111.28711 3.4746094 L 111.28711 5.109375 C 111.28711 5.1511867 111.3117 5.1777344 111.35352 5.1777344 L 111.58984 5.1777344 C 111.63166 5.1777344 111.6582 5.1511867 111.6582 5.109375 L 111.6582 3.4003906 C 111.6582 2.8516121 111.29683 2.4960938 110.74805 2.4960938 z M 26.763672 2.5078125 C 26.199214 2.5078125 25.806641 2.7888055 25.806641 3.2382812 C 25.806641 3.7347951 26.286852 3.8869166 26.736328 4.0175781 C 27.081275 4.1221074 27.384766 4.2001929 27.384766 4.4824219 C 27.384766 4.7280656 27.145149 4.9160156 26.779297 4.9160156 C 26.402992 4.9160156 26.152344 4.7077926 26.152344 4.4882812 L 26.152344 4.4414062 C 26.152344 4.4152739 26.125796 4.3945312 26.083984 4.3945312 L 25.859375 4.3945312 C 25.817563 4.3945312 25.791016 4.4210789 25.791016 4.4628906 L 25.791016 4.5097656 C 25.791016 4.8912973 26.18216 5.2050781 26.783203 5.2050781 C 27.373793 5.2050781 27.755859 4.906507 27.755859 4.4570312 C 27.755859 3.9396115 27.248937 3.7992632 26.804688 3.6738281 C 26.449288 3.5692989 26.167969 3.4742137 26.167969 3.2128906 C 26.167969 2.9620205 26.40764 2.8105469 26.757812 2.8105469 C 27.149797 2.8105469 27.384766 2.9985513 27.384766 3.2285156 L 27.384766 3.2597656 C 27.384766 3.2806715 27.411313 3.296875 27.453125 3.296875 L 27.667969 3.296875 C 27.70978 3.296875 27.734375 3.2703273 27.734375 3.2285156 C 27.734375 2.8156251 27.349036 2.5078125 26.763672 2.5078125 z M 122.01172 2.5078125 C 121.70858 2.5078125 121.48486 2.6638796 121.34375 2.9042969 C 121.3333 2.9252027 121.31641 2.9206636 121.31641 2.8945312 L 121.31641 2.6015625 C 121.31641 2.5597508 121.28986 2.5332031 121.24805 2.5332031 L 121.01367 2.5332031 C 120.97186 2.5332031 120.94531 2.5597508 120.94531 2.6015625 L 120.94531 5.109375 C 120.94531 5.1511867 120.97186 5.1777344 121.01367 5.1777344 L 121.24805 5.1777344 C 121.28986 5.1777344 121.31641 5.1511867 121.31641 5.109375 L 121.31641 3.5839844 C 121.31641 3.1919997 121.58273 2.9108435 121.94336 2.9003906 C 122.05312 2.8951642 122.1365 2.9048754 122.19922 2.9257812 C 122.24626 2.9414606 122.27275 2.9246242 122.2832 2.8828125 L 122.33594 2.6542969 C 122.34639 2.6177116 122.33541 2.5859919 122.29883 2.5703125 C 122.23088 2.5337273 122.14238 2.5078125 122.01172 2.5078125 z M 32.412109 2.5332031 C 32.370298 2.5332031 32.345703 2.5597508 32.345703 2.6015625 L 32.345703 5.109375 C 32.345703 5.1511867 32.370298 5.1777344 32.412109 5.1777344 L 32.648438 5.1777344 C 32.690249 5.1777344 32.716797 5.1511867 32.716797 5.109375 L 32.716797 2.6015625 C 32.716797 2.5597508 32.690249 2.5332031 32.648438 2.5332031 L 32.412109 2.5332031 z M 37.480469 2.5332031 C 37.438657 2.5332031 37.412109 2.5597508 37.412109 2.6015625 L 37.412109 4.3515625 C 37.412109 4.9107939 37.835517 5.2148438 38.332031 5.2148438 C 38.650845 5.2148438 38.882323 5.0989962 39.023438 4.9003906 C 39.039117 4.8794848 39.054688 4.8912035 39.054688 4.9121094 L 39.054688 5.109375 C 39.054688 5.1511867 39.079282 5.1777344 39.121094 5.1777344 L 39.357422 5.1777344 C 39.399234 5.1777344 39.425781 5.1511867 39.425781 5.109375 L 39.425781 2.6015625 C 39.425781 2.5597508 39.399234 2.5332031 39.357422 2.5332031 L 39.121094 2.5332031 C 39.079282 2.5332031 39.054688 2.5597508 39.054688 2.6015625 L 39.054688 4.2421875 C 39.054688 4.6289457 38.803461 4.890625 38.40625 4.890625 C 38.019492 4.890625 37.783203 4.6341721 37.783203 4.2421875 L 37.783203 2.6015625 C 37.783203 2.5597508 37.758609 2.5332031 37.716797 2.5332031 L 37.480469 2.5332031 z M 67.558594 2.5332031 C 67.516782 2.5332031 67.490234 2.5597508 67.490234 2.6015625 L 67.490234 4.3515625 C 67.490234 4.9107939 67.913642 5.2148438 68.410156 5.2148438 C 68.72897 5.2148438 68.958495 5.0989962 69.099609 4.9003906 C 69.115289 4.8794848 69.130859 4.8912035 69.130859 4.9121094 L 69.130859 5.109375 C 69.130859 5.1511867 69.157407 5.1777344 69.199219 5.1777344 L 69.435547 5.1777344 C 69.477359 5.1777344 69.501953 5.1511867 69.501953 5.109375 L 69.501953 2.6015625 C 69.501953 2.5597508 69.477359 2.5332031 69.435547 2.5332031 L 69.199219 2.5332031 C 69.157407 2.5332031 69.130859 2.5597508 69.130859 2.6015625 L 69.130859 4.2421875 C 69.130859 4.6289457 68.881586 4.890625 68.484375 4.890625 C 68.097617 4.890625 67.861328 4.6341721 67.861328 4.2421875 L 67.861328 2.6015625 C 67.861328 2.5597508 67.83478 2.5332031 67.792969 2.5332031 L 67.558594 2.5332031 z M 82.498047 2.5332031 C 82.456235 2.5332031 82.429688 2.5597508 82.429688 2.6015625 L 82.429688 5.109375 C 82.429688 5.1511867 82.456235 5.1777344 82.498047 5.1777344 L 82.734375 5.1777344 C 82.776187 5.1777344 82.800781 5.1511867 82.800781 5.109375 L 82.800781 2.6015625 C 82.800781 2.5597508 82.776187 2.5332031 82.734375 2.5332031 L 82.498047 2.5332031 z M 105.89062 2.5332031 C 105.84881 2.5332031 105.82422 2.5597508 105.82422 2.6015625 L 105.82422 4.3515625 C 105.82422 4.9107939 106.24763 5.2148438 106.74414 5.2148438 C 107.06295 5.2148438 107.29248 5.0989962 107.43359 4.9003906 C 107.44927 4.8794848 107.46484 4.8912035 107.46484 4.9121094 L 107.46484 5.109375 C 107.46484 5.1511867 107.49139 5.1777344 107.5332 5.1777344 L 107.76758 5.1777344 C 107.80939 5.1777344 107.83594 5.1511867 107.83594 5.109375 L 107.83594 2.6015625 C 107.83594 2.5597508 107.80939 2.5332031 107.76758 2.5332031 L 107.5332 2.5332031 C 107.49139 2.5332031 107.46484 2.5597508 107.46484 2.6015625 L 107.46484 4.2421875 C 107.46484 4.6289457 107.21362 4.890625 106.81641 4.890625 C 106.42965 4.890625 106.19531 4.6341721 106.19531 4.2421875 L 106.19531 2.6015625 C 106.19531 2.5597508 106.16876 2.5332031 106.12695 2.5332031 L 105.89062 2.5332031 z M 123.94336 2.5332031 C 123.90155 2.5332031 123.875 2.5597508 123.875 2.6015625 L 123.875 5.109375 C 123.875 5.1511867 123.90155 5.1777344 123.94336 5.1777344 L 124.17773 5.1777344 C 124.21955 5.1777344 124.24609 5.1511867 124.24609 5.109375 L 124.24609 2.6015625 C 124.24609 2.5597508 124.21955 2.5332031 124.17773 2.5332031 L 123.94336 2.5332031 z M 45.048828 2.8164062 C 45.399001 2.8164062 45.650119 3.0197638 45.728516 3.328125 C 45.759874 3.4431072 45.769531 3.6255044 45.769531 3.8554688 C 45.769531 4.0645272 45.759874 4.2573774 45.728516 4.3828125 C 45.644892 4.6964002 45.39504 4.8964844 45.060547 4.8964844 C 44.710374 4.8964844 44.459256 4.6964002 44.380859 4.3828125 C 44.349501 4.2678303 44.337891 4.0802066 44.337891 3.8554688 C 44.337891 3.6359574 44.349501 3.4431072 44.380859 3.328125 C 44.464483 3.0197638 44.709108 2.8164062 45.048828 2.8164062 z M 50.894531 2.8164062 C 51.171534 2.8164062 51.359736 2.9770669 51.443359 3.2070312 C 51.506077 3.3481457 51.537109 3.5052958 51.537109 3.8554688 C 51.537109 4.2004152 51.509983 4.3582526 51.447266 4.4941406 C 51.363642 4.7293314 51.176127 4.8964844 50.888672 4.8964844 C 50.59599 4.8964844 50.370733 4.7391514 50.287109 4.4882812 C 50.224392 4.3471668 50.193359 4.1951888 50.193359 3.8554688 C 50.193359 3.4948429 50.236056 3.3383801 50.314453 3.1972656 C 50.403303 2.9725278 50.612302 2.8164062 50.894531 2.8164062 z M 54.726562 2.8164062 C 55.087188 2.8164062 55.32722 3.0249902 55.400391 3.328125 C 55.41607 3.4012955 55.426414 3.5209949 55.431641 3.6621094 C 55.431641 3.6777888 55.419976 3.6894531 55.404297 3.6894531 L 54.0625 3.6894531 C 54.046821 3.6894531 54.035156 3.6777888 54.035156 3.6621094 C 54.040383 3.510542 54.051993 3.390264 54.078125 3.3066406 C 54.146069 3.0191852 54.371163 2.8164062 54.726562 2.8164062 z M 64.677734 2.8164062 C 64.954737 2.8164062 65.142939 2.9770669 65.226562 3.2070312 C 65.28928 3.3481457 65.320312 3.5052958 65.320312 3.8554688 C 65.320312 4.2004152 65.295139 4.3582526 65.232422 4.4941406 C 65.148798 4.7293314 64.961284 4.8964844 64.673828 4.8964844 C 64.381146 4.8964844 64.155889 4.7391514 64.072266 4.4882812 C 64.009548 4.3471668 63.978516 4.1951888 63.978516 3.8554688 C 63.978516 3.4948429 64.019259 3.3383801 64.097656 3.1972656 C 64.186506 2.9725278 64.395505 2.8164062 64.677734 2.8164062 z M 85.65625 2.8164062 C 86.006423 2.8164062 86.257541 3.0197638 86.335938 3.328125 C 86.367296 3.4431072 86.376953 3.6255044 86.376953 3.8554688 C 86.376953 4.0645272 86.367296 4.2573774 86.335938 4.3828125 C 86.252314 4.6964002 86.000509 4.8964844 85.666016 4.8964844 C 85.315843 4.8964844 85.066678 4.6964002 84.988281 4.3828125 C 84.956922 4.2678303 84.945312 4.0802066 84.945312 3.8554688 C 84.945312 3.6359574 84.956922 3.4431072 84.988281 3.328125 C 85.071905 3.0197638 85.31653 2.8164062 85.65625 2.8164062 z M 99.363281 2.8164062 C 99.723907 2.8164062 99.963939 3.0249902 100.03711 3.328125 C 100.05279 3.4012955 100.06313 3.5209949 100.06836 3.6621094 C 100.06836 3.6777888 100.05865 3.6894531 100.04297 3.6894531 L 98.699219 3.6894531 C 98.683539 3.6894531 98.673828 3.6777888 98.673828 3.6621094 C 98.679055 3.510542 98.688711 3.390264 98.714844 3.3066406 C 98.782788 3.0191852 99.007882 2.8164062 99.363281 2.8164062 z M 114.42773 2.8164062 C 114.70474 2.8164062 114.89294 2.9770669 114.97656 3.2070312 C 115.03928 3.3481457 115.07227 3.5052958 115.07227 3.8554688 C 115.07227 4.2004152 115.04514 4.3582526 114.98242 4.4941406 C 114.8988 4.7293314 114.71128 4.8964844 114.42383 4.8964844 C 114.13115 4.8964844 113.90589 4.7391514 113.82227 4.4882812 C 113.75955 4.3471668 113.72852 4.1951888 113.72852 3.8554688 C 113.72852 3.4948429 113.76926 3.3383801 113.84766 3.1972656 C 113.93651 2.9725278 114.14551 2.8164062 114.42773 2.8164062 z M 75.978516 3.9023438 L 76.527344 3.9023438 C 76.543023 3.9023438 76.552734 3.9140081 76.552734 3.9296875 L 76.552734 4.3320312 C 76.552734 4.6978836 76.177774 4.9003906 75.791016 4.9003906 C 75.472201 4.9003906 75.214844 4.754361 75.214844 4.4355469 C 75.214844 4.0958269 75.523813 3.9023438 75.978516 3.9023438 z M 118.23828 3.9023438 L 118.78711 3.9023438 C 118.80279 3.9023438 118.81445 3.9140081 118.81445 3.9296875 L 118.81445 4.3320312 C 118.81445 4.6978836 118.43754 4.9003906 118.05078 4.9003906 C 117.73197 4.9003906 117.47656 4.754361 117.47656 4.4355469 C 117.47656 4.0958269 117.78358 3.9023438 118.23828 3.9023438 z M 127.05469 3.9023438 L 127.60352 3.9023438 C 127.6192 3.9023438 127.62891 3.9140081 127.62891 3.9296875 L 127.62891 4.3320312 C 127.62891 4.6978836 127.25199 4.9003906 126.86523 4.9003906 C 126.54642 4.9003906 126.29102 4.754361 126.29102 4.4355469 C 126.29102 4.0958269 126.59999 3.9023438 127.05469 3.9023438 z "
         style="font-style:normal;font-variant:normal;font-weight:normal;font-stretch:normal;font-size:0.91992182px;line-height:1.25;font-family:Barlow;-inkscape-font-specification:Barlow;letter-spacing:0px;word-spacing:0px;fill:#142469;fill-opacity:1;stroke:none;stroke-width:0.17075358" />
      <path
         id="text898-4"
         transform="matrix(0.26458333,0,0,0.26458333,-433.39006,500.04034)"
         d="M 38.779297 8.7949219 C 36.82668 8.7949219 35.486328 10.136438 35.486328 12.146484 L 35.486328 19.152344 C 35.486328 21.16239 36.82668 22.501953 38.779297 22.501953 C 40.751057 22.501953 42.111328 21.16239 42.111328 19.152344 L 42.111328 12.146484 C 42.111328 10.136438 40.751057 8.7949219 38.779297 8.7949219 z M 115.47266 8.7949219 C 113.52004 8.7949219 112.2168 10.077844 112.2168 12.087891 L 112.2168 19.189453 C 112.2168 21.199499 113.52004 22.501953 115.47266 22.501953 C 117.44442 22.501953 118.74609 21.199499 118.74609 19.189453 L 118.74609 18.884766 C 118.74609 18.769906 118.66955 18.693359 118.55469 18.693359 L 117.55859 18.634766 C 117.44373 18.634766 117.36719 18.711312 117.36719 18.826172 L 117.36719 19.304688 C 117.36719 20.491572 116.62125 21.314453 115.47266 21.314453 C 114.3432 21.314453 113.57617 20.491572 113.57617 19.304688 L 113.57617 11.992188 C 113.57617 10.78616 114.3432 9.9824219 115.47266 9.9824219 C 116.62125 9.9824219 117.36719 10.78616 117.36719 11.992188 L 117.36719 12.470703 C 117.36719 12.585563 117.44373 12.662109 117.55859 12.662109 L 118.55469 12.605469 C 118.66955 12.605469 118.74609 12.528922 118.74609 12.414062 L 118.74609 12.087891 C 118.74609 10.077844 117.44442 8.7949219 115.47266 8.7949219 z M 45.056641 8.9296875 C 44.941781 8.9296875 44.865234 9.006234 44.865234 9.1210938 L 44.865234 22.158203 C 44.865234 22.273063 44.941781 22.349609 45.056641 22.349609 L 46.033203 22.349609 C 46.148063 22.349609 46.224609 22.273063 46.224609 22.158203 L 46.224609 16.261719 C 46.224609 16.223432 46.262495 16.185547 46.300781 16.185547 L 47.947266 16.185547 C 47.985552 16.185547 48.006247 16.184758 48.025391 16.242188 L 49.996094 22.195312 C 50.03438 22.291029 50.130846 22.349609 50.226562 22.349609 L 51.220703 22.349609 C 51.354706 22.349609 51.413287 22.272675 51.375 22.138672 L 49.287109 16.107422 C 49.267966 16.049992 49.288273 16.030862 49.345703 16.011719 C 50.570874 15.55228 51.335938 14.309222 51.335938 12.605469 C 51.335938 10.403989 50.073697 8.9296875 48.216797 8.9296875 L 45.056641 8.9296875 z M 20.029297 8.9492188 C 19.914437 8.9492188 19.837891 9.0257652 19.837891 9.140625 L 19.837891 22.158203 C 19.837891 22.273063 19.914437 22.349609 20.029297 22.349609 L 21.005859 22.349609 C 21.120719 22.349609 21.197266 22.273063 21.197266 22.158203 L 21.197266 16.318359 C 21.197266 16.280073 21.235151 16.242188 21.273438 16.242188 L 24.048828 16.242188 C 24.163688 16.242188 24.240234 16.165641 24.240234 16.050781 L 24.240234 15.228516 C 24.240234 15.113656 24.163688 15.037109 24.048828 15.037109 L 21.273438 15.037109 C 21.235151 15.037109 21.197266 14.997271 21.197266 14.958984 L 21.197266 10.212891 C 21.197266 10.174604 21.235151 10.134766 21.273438 10.134766 L 25.675781 10.134766 C 25.790641 10.134766 25.867188 10.058219 25.867188 9.9433594 L 25.867188 9.140625 C 25.867188 9.0257652 25.790641 8.9492188 25.675781 8.9492188 L 20.029297 8.9492188 z M 28.109375 8.9492188 C 27.994515 8.9492188 27.917969 9.0257652 27.917969 9.140625 L 27.917969 22.158203 C 27.917969 22.273063 27.994515 22.349609 28.109375 22.349609 L 33.738281 22.349609 C 33.853141 22.349609 33.929688 22.273063 33.929688 22.158203 L 33.929688 21.353516 C 33.929688 21.238656 33.853141 21.162109 33.738281 21.162109 L 29.353516 21.162109 C 29.315229 21.162109 29.277344 21.124224 29.277344 21.085938 L 29.277344 9.140625 C 29.277344 9.0257652 29.200797 8.9492188 29.085938 8.9492188 L 28.109375 8.9492188 z M 53.886719 8.9492188 C 53.771859 8.9492188 53.695312 9.0257652 53.695312 9.140625 L 53.695312 22.158203 C 53.695312 22.273063 53.771859 22.349609 53.886719 22.349609 L 54.863281 22.349609 C 54.978141 22.349609 55.054688 22.273063 55.054688 22.158203 L 55.054688 9.140625 C 55.054688 9.0257652 54.978141 8.9492188 54.863281 8.9492188 L 53.886719 8.9492188 z M 58.339844 8.9492188 C 58.224984 8.9492188 58.148438 9.0257652 58.148438 9.140625 L 58.148438 22.158203 C 58.148438 22.273063 58.224984 22.349609 58.339844 22.349609 L 61.289062 22.349609 C 63.260822 22.349609 64.523438 20.971399 64.523438 18.789062 L 64.523438 12.509766 C 64.523438 10.32743 63.260822 8.9492188 61.289062 8.9492188 L 58.339844 8.9492188 z M 69.371094 8.9492188 C 69.256234 8.9492188 69.1793 9.006234 69.160156 9.1210938 L 66.269531 22.138672 C 66.250388 22.253532 66.307403 22.349609 66.441406 22.349609 L 67.417969 22.349609 C 67.532829 22.349609 67.609763 22.290641 67.628906 22.175781 L 68.126953 19.802734 C 68.126953 19.764448 68.18437 19.726562 68.222656 19.726562 L 71.6875 19.726562 C 71.725787 19.726562 71.783203 19.764448 71.783203 19.802734 L 72.261719 22.175781 C 72.280862 22.290641 72.357796 22.349609 72.472656 22.349609 L 73.466797 22.349609 C 73.6008 22.349609 73.659768 22.253532 73.640625 22.138672 L 70.730469 9.1210938 C 70.711325 9.006234 70.634391 8.9492188 70.519531 8.9492188 L 69.371094 8.9492188 z M 76.222656 8.9492188 C 76.107796 8.9492188 76.03125 9.0257652 76.03125 9.140625 L 76.03125 22.158203 C 76.03125 22.273063 76.107796 22.349609 76.222656 22.349609 L 79.152344 22.349609 C 81.21982 22.349609 82.597268 21.04642 82.578125 18.710938 C 82.578125 17.1029 81.928269 16.050473 80.894531 15.457031 C 80.856245 15.437888 80.854679 15.400003 80.912109 15.380859 C 81.964991 14.86399 82.501953 13.886919 82.501953 12.451172 C 82.501953 10.173119 81.141708 8.9492188 78.978516 8.9492188 L 76.222656 8.9492188 z M 85.164062 8.9492188 C 85.049203 8.9492188 84.972656 9.0257652 84.972656 9.140625 L 84.972656 22.158203 C 84.972656 22.273063 85.049203 22.349609 85.164062 22.349609 L 90.791016 22.349609 C 90.905875 22.349609 90.982422 22.273063 90.982422 22.158203 L 90.982422 21.353516 C 90.982422 21.238656 90.905875 21.162109 90.791016 21.162109 L 86.408203 21.162109 C 86.369917 21.162109 86.332031 21.124224 86.332031 21.085938 L 86.332031 9.140625 C 86.332031 9.0257652 86.255485 8.9492188 86.140625 8.9492188 L 85.164062 8.9492188 z M 96.119141 8.9492188 C 96.004281 8.9492188 95.927346 9.006234 95.908203 9.1210938 L 93.017578 22.138672 C 92.998435 22.253532 93.05545 22.349609 93.189453 22.349609 L 94.166016 22.349609 C 94.280875 22.349609 94.35781 22.290641 94.376953 22.175781 L 94.875 19.802734 C 94.875 19.764448 94.932417 19.726562 94.970703 19.726562 L 98.435547 19.726562 C 98.473833 19.726562 98.53125 19.764448 98.53125 19.802734 L 99.009766 22.175781 C 99.028909 22.290641 99.105843 22.349609 99.220703 22.349609 L 100.2168 22.349609 C 100.3508 22.349609 100.40782 22.253532 100.38867 22.138672 L 97.478516 9.1210938 C 97.459372 9.006234 97.382438 8.9492188 97.267578 8.9492188 L 96.119141 8.9492188 z M 102.9707 8.9492188 C 102.85584 8.9492188 102.7793 9.0257652 102.7793 9.140625 L 102.7793 22.158203 C 102.7793 22.273063 102.85584 22.349609 102.9707 22.349609 L 103.94727 22.349609 C 104.06213 22.349609 104.13867 22.273063 104.13867 22.158203 L 104.11914 12.566406 C 104.11914 12.489833 104.1957 12.470302 104.21484 12.546875 L 108.0625 22.195312 C 108.10079 22.310172 108.17772 22.349609 108.27344 22.349609 L 109.28906 22.349609 C 109.40392 22.349609 109.48047 22.273063 109.48047 22.158203 L 109.48047 9.140625 C 109.48047 9.0257652 109.40392 8.9492188 109.28906 8.9492188 L 108.33008 8.9492188 C 108.21522 8.9492188 108.13867 9.0257652 108.13867 9.140625 L 108.13867 18.75 C 108.13867 18.826573 108.06211 18.826573 108.04297 18.75 L 104.19531 9.1015625 C 104.15703 8.9867027 104.08204 8.9492188 103.98633 8.9492188 L 102.9707 8.9492188 z M 123.72656 8.9492188 C 123.6117 8.9492188 123.53672 9.006234 123.51758 9.1210938 L 120.62695 22.138672 C 120.60781 22.253532 120.66483 22.349609 120.79883 22.349609 L 121.77539 22.349609 C 121.89025 22.349609 121.96718 22.290641 121.98633 22.175781 L 122.48242 19.802734 C 122.48242 19.764448 122.53984 19.726562 122.57812 19.726562 L 126.04297 19.726562 C 126.08126 19.726562 126.13867 19.764448 126.13867 19.802734 L 126.61719 22.175781 C 126.63633 22.290641 126.71327 22.349609 126.82812 22.349609 L 127.82422 22.349609 C 127.95822 22.349609 128.01524 22.253532 127.99609 22.138672 L 125.08594 9.1210938 C 125.06679 9.006234 124.99181 8.9492188 124.87695 8.9492188 L 123.72656 8.9492188 z M 38.779297 9.9824219 C 39.947038 9.9824219 40.751953 10.843576 40.751953 12.087891 L 40.751953 19.228516 C 40.751953 20.453687 39.947038 21.314453 38.779297 21.314453 C 37.630699 21.314453 36.845703 20.453687 36.845703 19.228516 L 36.845703 12.087891 C 36.845703 10.843576 37.630699 9.9824219 38.779297 9.9824219 z M 46.300781 10.117188 L 48.025391 10.117188 C 49.193132 10.117188 49.976562 11.093536 49.976562 12.625 C 49.976562 14.118177 49.193132 15.09375 48.025391 15.09375 L 46.300781 15.09375 C 46.262495 15.09375 46.224609 15.055865 46.224609 15.017578 L 46.224609 10.193359 C 46.224609 10.155073 46.262495 10.117188 46.300781 10.117188 z M 59.583984 10.134766 L 61.269531 10.134766 C 62.437272 10.134766 63.144531 11.073229 63.144531 12.566406 L 63.144531 18.730469 C 63.125388 20.223646 62.398986 21.142578 61.269531 21.142578 L 59.583984 21.162109 C 59.545698 21.162109 59.507812 21.124224 59.507812 21.085938 L 59.507812 10.212891 C 59.507812 10.174604 59.545698 10.134766 59.583984 10.134766 z M 77.466797 10.134766 L 78.978516 10.134766 C 80.356833 10.134766 81.162109 11.034942 81.162109 12.566406 C 81.162109 14.04044 80.356833 14.902344 78.978516 14.902344 L 77.466797 14.902344 C 77.42851 14.902344 77.390625 14.864458 77.390625 14.826172 L 77.390625 10.212891 C 77.390625 10.174604 77.42851 10.134766 77.466797 10.134766 z M 69.964844 11.111328 C 69.979201 11.111328 69.992381 11.131635 70.001953 11.169922 L 71.515625 18.539062 C 71.515625 18.577349 71.495318 18.615234 71.457031 18.615234 L 68.451172 18.615234 C 68.412885 18.615234 68.394531 18.577349 68.394531 18.539062 L 69.925781 11.169922 C 69.935353 11.131635 69.950486 11.111328 69.964844 11.111328 z M 96.712891 11.111328 C 96.727248 11.111328 96.740428 11.131635 96.75 11.169922 L 98.263672 18.539062 C 98.263672 18.577349 98.243365 18.615234 98.205078 18.615234 L 95.201172 18.615234 C 95.162885 18.615234 95.142578 18.577349 95.142578 18.539062 L 96.673828 11.169922 C 96.6834 11.131635 96.698533 11.111328 96.712891 11.111328 z M 124.32031 11.111328 C 124.33467 11.111328 124.3498 11.131635 124.35938 11.169922 L 125.87109 18.539062 C 125.87109 18.577349 125.85274 18.615234 125.81445 18.615234 L 122.80859 18.615234 C 122.77031 18.615234 122.75195 18.577349 122.75195 18.539062 L 124.2832 11.169922 C 124.29277 11.131635 124.30596 11.111328 124.32031 11.111328 z M 77.466797 15.935547 L 79.056641 15.935547 C 80.415815 15.935547 81.21875 16.91227 81.21875 18.558594 C 81.21875 20.204917 80.415815 21.142578 79.056641 21.142578 L 77.466797 21.142578 C 77.42851 21.142578 77.390625 21.104693 77.390625 21.066406 L 77.390625 16.011719 C 77.390625 15.973432 77.42851 15.935547 77.466797 15.935547 z "
         style="font-style:normal;font-variant:normal;font-weight:normal;font-stretch:normal;font-size:1.01299977px;line-height:1.25;font-family:Barlow;-inkscape-font-specification:Barlow;letter-spacing:0px;word-spacing:0px;fill:#142469;fill-opacity:1;stroke:none;stroke-width:0.17075358" />
    </g>
  </g>
</svg>
