<svg xmlns="http://www.w3.org/2000/svg" width="640" height="220" viewBox="0 0 640 220">
    <defs>
        <linearGradient id="grad" x1="0%" y1="0%" x2="100%" y2="100%">
            <stop offset="0%" stop-color="#0a558c" stop-opacity="0.15" />
            <stop offset="100%" stop-color="#0a558c" stop-opacity="0.05" />
        </linearGradient>
    </defs>
    <rect width="640" height="220" rx="24" ry="24" fill="url(#grad)" stroke="#0a558c" stroke-opacity="0.2" />
    <text x="320" y="48" font-family="Open Sans, Arial, sans-serif" font-size="22" font-weight="700" text-anchor="middle" fill="#0a3d62">
        Rutas sugeridas · Incubadora 37
    </text>
    <g font-family="Open Sans, Arial, sans-serif" font-size="16" font-weight="600" fill="#0a558c">
        <rect x="48" y="70" width="210" height="44" rx="14" ry="14" fill="#fff" opacity="0.9" />
        <text x="153" y="98" text-anchor="middle">/incubadora</text>

        <rect x="302" y="70" width="290" height="44" rx="14" ry="14" fill="#fff" opacity="0.9" />
        <text x="447" y="98" text-anchor="middle">/incubadora/ia</text>

        <rect x="48" y="128" width="260" height="44" rx="14" ry="14" fill="#fff" opacity="0.9" />
        <text x="178" y="156" text-anchor="middle">/incubadora/metodologias</text>

        <rect x="332" y="128" width="260" height="44" rx="14" ry="14" fill="#fff" opacity="0.9" />
        <text x="462" y="156" text-anchor="middle">/incubadora/inclusion</text>

        <rect x="48" y="186" width="210" height="32" rx="14" ry="14" fill="#fff" opacity="0.9" />
        <text x="153" y="207" text-anchor="middle">/incubadora/herramientas</text>

        <rect x="276" y="186" width="160" height="32" rx="14" ry="14" fill="#fff" opacity="0.9" />
        <text x="356" y="207" text-anchor="middle">/incubadora/retos</text>

        <rect x="468" y="186" width="124" height="32" rx="14" ry="14" fill="#fff" opacity="0.9" />
        <text x="530" y="207" text-anchor="middle">/incubadora/galeria</text>
    </g>
</svg>
